<svg width="30" height="28" xmlns="http://www.w3.org/2000/svg" xml:space="preserve" version="1.1">

 <g>
  <title>Layer 1</title>
  <g stroke=" none" id="svg_1" fill-rule=" nonzero" fill=" none" stroke-miterlimit="10" stroke-linejoin=" miter" stroke-linecap=" butt" stroke-dasharray=" none" stroke-width="0" transform="translate(1.40659 1.40659) scale(2.81 2.81)">
   <circle stroke=" none" id="svg_2" fill-rule=" nonzero" fill=" rgb(32,196,203)" stroke-miterlimit="10" stroke-linejoin=" miter" stroke-linecap=" butt" stroke-dasharray=" none" r="4.5" cy="4.5" cx="5"/>
   <path stroke=" none" id="svg_3" fill-rule=" nonzero" fill=" rgb(27,167,173)" stroke-miterlimit="10" stroke-linejoin=" miter" stroke-dasharray=" none" stroke-linecap=" butt" d="m6.52833,6.5375l-3.69,0c-0.12056,0 -0.233,-0.0536 -0.30067,-0.1436c-0.06756,-0.0898 -0.08122,-0.2036 -0.03656,-0.3044l1.845,-4.1589c0.05544,-0.1249 0.18778,-0.2056 0.33722,-0.2056s0.28178,0.0807 0.33722,0.2056l1.845,4.159c0.04467,0.1008 0.031,0.2146 -0.03656,0.3044c-0.06767,0.0899 -0.18011,0.1435 -0.30067,0.1435zm-1.97589,-4.5327l-1.845,4.159c-0.01756,0.0396 -0.01244,0.0827 0.01422,0.1181s0.06911,0.0557 0.11667,0.0557l3.69,0c0.04756,0 0.09011,-0.0203 0.11667,-0.0557c0.02656,-0.0354 0.03178,-0.0784 0.01422,-0.1181l-1.845,-4.159c-0.03278,-0.074 -0.10844,-0.0797 -0.13089,-0.0797s-0.09811,0.0057 -0.13089,0.0797l0,0z"/>
   <path stroke=" none" id="svg_4" fill-rule=" nonzero" fill=" rgb(27,167,173)" stroke-miterlimit="10" stroke-linejoin=" miter" stroke-dasharray=" none" stroke-linecap=" butt" d="m6.54756,5.6876l-3.72856,0l-0.26078,0.5878c-0.044,0.0993 0.03722,0.2072 0.156,0.2072l3.93822,0c0.11878,0 0.2,-0.1079 0.156,-0.2072l-0.26089,-0.5878z"/>
   <path stroke=" none" id="svg_5" fill-rule=" nonzero" fill=" rgb(27,167,173)" stroke-miterlimit="10" stroke-linejoin=" miter" stroke-dasharray=" none" stroke-linecap=" butt" d="m6.65244,6.5826l-3.93833,0c-0.09267,0 -0.179,-0.0412 -0.231,-0.1103s-0.06256,-0.1565 -0.02811,-0.2341l0.28867,-0.6507l3.87933,0l0.28867,0.6507c0.03444,0.0775 0.02389,0.165 -0.02811,0.2341s-0.13844,0.1103 -0.23111,0.1103zm-3.75822,-0.795l-0.23289,0.5249c-0.00978,0.022 -0.00056,0.0393 0.00567,0.0477c0.00633,0.0084 0.02089,0.0225 0.047,0.0225l3.93833,0c0.02611,0 0.04067,-0.0141 0.047,-0.0225s0.01556,-0.0258 0.00578,-0.0477l-0.23289,-0.5249l-3.578,0z"/>
   <path stroke=" none" id="svg_6" fill-rule=" nonzero" fill=" rgb(27,167,173)" stroke-miterlimit="10" stroke-linejoin=" miter" stroke-dasharray=" none" stroke-linecap=" butt" d="m5.20689,2.6654l-0.36767,-0.8287c-0.05622,-0.1268 -0.25567,-0.1268 -0.31189,0l-0.36767,0.8287l1.04722,0z"/>
   <path stroke=" none" id="svg_7" fill-rule=" nonzero" fill=" rgb(27,167,173)" stroke-miterlimit="10" stroke-linejoin=" miter" stroke-dasharray=" none" stroke-linecap=" butt" d="m5.37078,2.7654l-1.37511,0l0.42844,-0.9658c0.04256,-0.0959 0.14422,-0.158 0.25911,-0.158c0.11489,0 0.21667,0.062 0.25922,0.158l0.42833,0.9658zm-1.04711,-0.2l0.71911,0l-0.30678,-0.6917c-0.01289,-0.029 -0.04122,-0.0321 -0.05278,-0.0321s-0.03989,0.0031 -0.05278,0.0321l-0.30678,0.6917z"/>
   <polygon stroke=" none" id="svg_8" fill-rule=" nonzero" fill=" rgb(27,167,173)" stroke-miterlimit="10" stroke-linejoin=" miter" stroke-linecap=" butt" stroke-dasharray=" none" points="6.034444641992451,4.531000204846265 5.71999999175469,3.8220001790225524 3.64666665992803,3.8220001790225524 3.332222221617897,4.531000204846265 "/>
   <path stroke=" none" id="svg_9" fill-rule=" nonzero" fill=" rgb(27,167,173)" stroke-miterlimit="10" stroke-linejoin=" miter" stroke-dasharray=" none" stroke-linecap=" butt" d="m6.19844,4.6312l-3.03044,0l0.40333,-0.9093l2.22389,0l0.40322,0.9093zm-2.70244,-0.2001l2.37456,0l-0.22589,-0.5092l-1.92267,0l-0.226,0.5092z"/>
   <path stroke=" none" id="svg_10" fill-rule=" nonzero" fill=" rgb(27,167,173)" stroke-miterlimit="10" stroke-linejoin=" miter" stroke-dasharray=" none" stroke-linecap=" butt" d="m6.89267,6.2946l-4.41878,0c-0.19044,0 -0.34489,0.139 -0.34489,0.3104l0,0.0561c0,0.1714 0.15444,0.3104 0.34489,0.3104l4.41867,0c0.19044,0 0.34489,-0.139 0.34489,-0.3104l0,-0.0561c0.00011,-0.1714 -0.15433,-0.3104 -0.34478,-0.3104z"/>
   <path stroke=" none" id="svg_11" fill-rule=" nonzero" fill=" rgb(27,167,173)" stroke-miterlimit="10" stroke-linejoin=" miter" stroke-dasharray=" none" stroke-linecap=" butt" d="m6.89256,7.0716l-4.41856,0c-0.25144,0 -0.456,-0.1841 -0.456,-0.4104l0,-0.0562c0,-0.2263 0.20456,-0.4104 0.456,-0.4104l4.41867,0c0.25156,0 0.456,0.1841 0.456,0.4104l0,0.0562c0,0.2263 -0.20456,0.4104 -0.45611,0.4104zm-4.41856,-0.677c-0.129,0 -0.23378,0.0943 -0.23378,0.2104l0,0.0562c0,0.116 0.10489,0.2104 0.23378,0.2104l4.41867,0c0.12889,0 0.23378,-0.0944 0.23378,-0.2104l0,-0.0562c0,-0.116 -0.10489,-0.2104 -0.23378,-0.2104l-4.41867,0z"/>
   <path stroke=" none" id="svg_12" fill-rule=" nonzero" fill=" rgb(255,255,255)" stroke-miterlimit="10" stroke-linejoin=" miter" stroke-dasharray=" none" stroke-linecap=" butt" d="m6.82844,6.2675l-3.69,0c-0.12056,0 -0.233,-0.0537 -0.30067,-0.1436c-0.06767,-0.0899 -0.08133,-0.2037 -0.03656,-0.3045l1.845,-4.1588c0.05544,-0.125 0.18778,-0.2057 0.33722,-0.2057c0.14944,0 0.28178,0.0807 0.33722,0.2057l1.845,4.1588c0.04467,0.1008 0.031,0.2146 -0.03667,0.3045c-0.06756,0.09 -0.18,0.1436 -0.30056,0.1436zm-1.97589,-4.5328l-1.845,4.159c-0.01767,0.0396 -0.01244,0.0827 0.01411,0.1181c0.02667,0.0354 0.06922,0.0558 0.11667,0.0558l3.69,0c0.04744,0 0.09,-0.0203 0.11667,-0.0557c0.02656,-0.0354 0.03178,-0.0785 0.01422,-0.1182l-1.845,-4.159c-0.03278,-0.074 -0.10844,-0.0798 -0.13089,-0.0798s-0.098,0.0058 -0.13078,0.0798l0,0z"/>
   <path stroke=" none" id="svg_13" fill-rule=" nonzero" fill=" rgb(255,255,255)" stroke-miterlimit="10" stroke-linejoin=" miter" stroke-dasharray=" none" stroke-linecap=" butt" d="m6.84767,5.4175l-3.72856,0l-0.26078,0.5878c-0.044,0.0993 0.03722,0.2072 0.156,0.2072l3.93822,0c0.11878,0 0.2,-0.1079 0.156,-0.2072l-0.26089,-0.5878z"/>
   <path stroke=" none" id="svg_14" fill-rule=" nonzero" fill=" rgb(255,255,255)" stroke-miterlimit="10" stroke-linejoin=" miter" stroke-dasharray=" none" stroke-linecap=" butt" d="m6.95244,6.3125l-3.93822,0c-0.09267,0 -0.179,-0.0412 -0.231,-0.1103c-0.052,-0.069 -0.06256,-0.1565 -0.02822,-0.234l0.28878,-0.6508l3.87911,0l0.28878,0.6507c0.03444,0.0775 0.02389,0.1649 -0.02811,0.2341c-0.05189,0.0691 -0.13844,0.1103 -0.23111,0.1103zm-3.75811,-0.795l-0.23289,0.5249c-0.00967,0.0219 -0.00056,0.0393 0.00578,0.0477c0.00633,0.0084 0.02089,0.0225 0.047,0.0225l3.93822,0c0.02622,0 0.04078,-0.0141 0.04711,-0.0225s0.01556,-0.0258 0.00578,-0.0477l-0.233,-0.5249l-3.578,0z"/>
   <path stroke=" none" id="svg_15" fill-rule=" nonzero" fill=" rgb(255,255,255)" stroke-miterlimit="10" stroke-linejoin=" miter" stroke-dasharray=" none" stroke-linecap=" butt" d="m5.507,2.3953l-0.36767,-0.8287c-0.05622,-0.1268 -0.25567,-0.1268 -0.31189,0l-0.36767,0.8287l1.04722,0z"/>
   <path stroke=" none" id="svg_16" fill-rule=" nonzero" fill=" rgb(255,255,255)" stroke-miterlimit="10" stroke-linejoin=" miter" stroke-dasharray=" none" stroke-linecap=" butt" d="m5.67089,2.4953l-1.37511,0l0.42844,-0.9657c0.04256,-0.096 0.14433,-0.1581 0.25922,-0.1581c0,0 0,0 0,0c0.11478,0 0.21656,0.0621 0.25911,0.1581l0.42833,0.9657zm-1.04711,-0.2l0.71922,0l-0.30689,-0.6916c-0.01289,-0.029 -0.04122,-0.0322 -0.05278,-0.0322l0,0c-0.01156,0 -0.03989,0.0031 -0.05278,0.0322l-0.30678,0.6916z"/>
   <polygon stroke=" none" id="svg_17" fill-rule=" nonzero" fill=" rgb(255,255,255)" stroke-miterlimit="10" stroke-linejoin=" miter" stroke-linecap=" butt" stroke-dasharray=" none" points="6.334444305143421,4.261000124529005 6.020000078760916,3.5520000987052924 3.9466667469342553,3.5520000987052924 3.632222096696495,4.261000124529005 "/>
   <path stroke=" none" id="svg_18" fill-rule=" nonzero" fill=" rgb(255,255,255)" stroke-miterlimit="10" stroke-linejoin=" miter" stroke-dasharray=" none" stroke-linecap=" butt" d="m6.49856,4.361l-3.03044,0l0.40344,-0.9092l2.22389,0l0.40311,0.9092zm-2.70244,-0.2l2.37456,0l-0.22589,-0.5092l-1.92278,0l-0.22589,0.5092z"/>
   <path stroke=" none" id="svg_19" fill-rule=" nonzero" fill=" rgb(255,255,255)" stroke-miterlimit="10" stroke-linejoin=" miter" stroke-dasharray=" none" stroke-linecap=" butt" d="m7.19278,6.0245l-4.41878,0c-0.19044,0 -0.34489,0.139 -0.34489,0.3104l0,0.0561c0,0.1714 0.15444,0.3104 0.34489,0.3104l4.41867,0c0.19044,0 0.34489,-0.139 0.34489,-0.3104l0,-0.0561c0.00011,-0.1714 -0.15433,-0.3104 -0.34478,-0.3104z"/>
   <path stroke=" none" id="svg_20" fill-rule=" nonzero" fill=" rgb(255,255,255)" stroke-miterlimit="10" stroke-linejoin=" miter" stroke-dasharray=" none" stroke-linecap=" butt" d="m7.19267,6.8015l-4.41867,0c-0.25144,0 -0.456,-0.1841 -0.456,-0.4104l0,-0.0561c0,-0.2264 0.20456,-0.4104 0.456,-0.4104l4.41867,0c0.25156,0 0.456,0.1841 0.456,0.4104l0,0.0561c0.00011,0.2263 -0.20444,0.4104 -0.456,0.4104zm-4.41867,-0.677c-0.12889,0 -0.23378,0.0944 -0.23378,0.2104l0,0.0561c0,0.116 0.10489,0.2104 0.23378,0.2104l4.41867,0c0.12889,0 0.23378,-0.0944 0.23378,-0.2104l0,-0.056c0,-0.116 -0.10489,-0.2104 -0.23378,-0.2104l-4.41867,0l0,-0.0001z"/>
  </g>
 </g>
</svg>