<svg xmlns="http://www.w3.org/2000/svg" xmlns:xlink="http://www.w3.org/1999/xlink" version="1.1" width="256" height="256" viewBox="0 0 256 256" xml:space="preserve">
<g style="stroke: none; stroke-width: 0; stroke-dasharray: none; stroke-linecap: butt; stroke-linejoin: miter; stroke-miterlimit: 10; fill: none; fill-rule: nonzero; opacity: 1;" transform="translate(1.4065934065934016 1.4065934065934016) scale(2.81 2.81)">
	<circle cx="45" cy="45" r="45" style="stroke: none; stroke-width: 1; stroke-dasharray: none; stroke-linecap: butt; stroke-linejoin: miter; stroke-miterlimit: 10; fill: rgb(32,196,203); fill-rule: nonzero; opacity: 1;" transform="  matrix(1 0 0 1 0 0) "/>
	<path d="M 58.755 65.375 h -33.21 c -1.085 0 -2.097 -0.536 -2.706 -1.436 c -0.608 -0.898 -0.731 -2.036 -0.329 -3.044 l 16.605 -41.589 c 0.499 -1.249 1.69 -2.056 3.035 -2.056 s 2.536 0.807 3.035 2.056 L 61.79 60.896 c 0.402 1.008 0.279 2.146 -0.329 3.044 C 60.852 64.839 59.84 65.375 58.755 65.375 z M 40.972 20.048 l -16.605 41.59 c -0.158 0.396 -0.112 0.827 0.128 1.181 s 0.622 0.557 1.05 0.557 h 33.21 c 0.428 0 0.811 -0.203 1.05 -0.557 c 0.239 -0.354 0.286 -0.784 0.128 -1.181 l -16.605 -41.59 c -0.295 -0.74 -0.976 -0.797 -1.178 -0.797 S 41.267 19.308 40.972 20.048 L 40.972 20.048 z" style="stroke: none; stroke-width: 1; stroke-dasharray: none; stroke-linecap: butt; stroke-linejoin: miter; stroke-miterlimit: 10; fill: rgb(27,167,173); fill-rule: nonzero; opacity: 1;" transform=" matrix(1 0 0 1 0 0) " stroke-linecap="round"/>
	<path d="M 58.928 56.876 H 25.371 l -2.347 5.878 c -0.396 0.993 0.335 2.072 1.404 2.072 h 35.444 c 1.069 0 1.8 -1.079 1.404 -2.072 L 58.928 56.876 z" style="stroke: none; stroke-width: 1; stroke-dasharray: none; stroke-linecap: butt; stroke-linejoin: miter; stroke-miterlimit: 10; fill: rgb(27,167,173); fill-rule: nonzero; opacity: 1;" transform=" matrix(1 0 0 1 0 0) " stroke-linecap="round"/>
	<path d="M 59.872 65.826 H 24.427 c -0.834 0 -1.611 -0.412 -2.079 -1.103 s -0.563 -1.565 -0.253 -2.341 l 2.598 -6.507 h 34.914 l 2.598 6.507 c 0.31 0.775 0.215 1.65 -0.253 2.341 S 60.706 65.826 59.872 65.826 z M 26.048 57.876 l -2.096 5.249 c -0.088 0.22 -0.005 0.393 0.051 0.477 c 0.057 0.084 0.188 0.225 0.423 0.225 h 35.445 c 0.235 0 0.366 -0.141 0.423 -0.225 s 0.14 -0.258 0.052 -0.477 l -2.096 -5.249 H 26.048 z" style="stroke: none; stroke-width: 1; stroke-dasharray: none; stroke-linecap: butt; stroke-linejoin: miter; stroke-miterlimit: 10; fill: rgb(27,167,173); fill-rule: nonzero; opacity: 1;" transform=" matrix(1 0 0 1 0 0) " stroke-linecap="round"/>
	<path d="M 46.862 26.654 l -3.309 -8.287 c -0.506 -1.268 -2.301 -1.268 -2.807 0 l -3.309 8.287 H 46.862 z" style="stroke: none; stroke-width: 1; stroke-dasharray: none; stroke-linecap: butt; stroke-linejoin: miter; stroke-miterlimit: 10; fill: rgb(27,167,173); fill-rule: nonzero; opacity: 1;" transform=" matrix(1 0 0 1 0 0) " stroke-linecap="round"/>
	<path d="M 48.337 27.654 H 35.961 l 3.856 -9.658 c 0.383 -0.959 1.298 -1.58 2.332 -1.58 c 1.034 0 1.95 0.62 2.333 1.58 L 48.337 27.654 z M 38.913 25.654 h 6.472 l -2.761 -6.917 c -0.116 -0.29 -0.371 -0.321 -0.475 -0.321 s -0.359 0.031 -0.475 0.321 L 38.913 25.654 z" style="stroke: none; stroke-width: 1; stroke-dasharray: none; stroke-linecap: butt; stroke-linejoin: miter; stroke-miterlimit: 10; fill: rgb(27,167,173); fill-rule: nonzero; opacity: 1;" transform=" matrix(1 0 0 1 0 0) " stroke-linecap="round"/>
	<polygon points="54.31,45.31 51.48,38.22 32.82,38.22 29.99,45.31 " style="stroke: none; stroke-width: 1; stroke-dasharray: none; stroke-linecap: butt; stroke-linejoin: miter; stroke-miterlimit: 10; fill: rgb(27,167,173); fill-rule: nonzero; opacity: 1;" transform="  matrix(1 0 0 1 0 0) "/>
	<path d="M 55.786 46.312 H 28.512 l 3.63 -9.093 h 20.015 L 55.786 46.312 z M 31.464 44.311 h 21.371 l -2.033 -5.092 H 33.498 L 31.464 44.311 z" style="stroke: none; stroke-width: 1; stroke-dasharray: none; stroke-linecap: butt; stroke-linejoin: miter; stroke-miterlimit: 10; fill: rgb(27,167,173); fill-rule: nonzero; opacity: 1;" transform=" matrix(1 0 0 1 0 0) " stroke-linecap="round"/>
	<path d="M 62.034 62.946 H 22.265 c -1.714 0 -3.104 1.39 -3.104 3.104 v 0.561 c 0 1.714 1.39 3.104 3.104 3.104 h 39.768 c 1.714 0 3.104 -1.39 3.104 -3.104 V 66.05 C 65.138 64.336 63.748 62.946 62.034 62.946 z" style="stroke: none; stroke-width: 1; stroke-dasharray: none; stroke-linecap: butt; stroke-linejoin: miter; stroke-miterlimit: 10; fill: rgb(27,167,173); fill-rule: nonzero; opacity: 1;" transform=" matrix(1 0 0 1 0 0) " stroke-linecap="round"/>
	<path d="M 62.033 70.716 H 22.266 c -2.263 0 -4.104 -1.841 -4.104 -4.104 V 66.05 c 0 -2.263 1.841 -4.104 4.104 -4.104 h 39.768 c 2.264 0 4.104 1.841 4.104 4.104 v 0.562 C 66.138 68.875 64.297 70.716 62.033 70.716 z M 22.266 63.946 c -1.161 0 -2.104 0.943 -2.104 2.104 v 0.562 c 0 1.16 0.944 2.104 2.104 2.104 h 39.768 c 1.16 0 2.104 -0.944 2.104 -2.104 V 66.05 c 0 -1.16 -0.944 -2.104 -2.104 -2.104 H 22.266 z" style="stroke: none; stroke-width: 1; stroke-dasharray: none; stroke-linecap: butt; stroke-linejoin: miter; stroke-miterlimit: 10; fill: rgb(27,167,173); fill-rule: nonzero; opacity: 1;" transform=" matrix(1 0 0 1 0 0) " stroke-linecap="round"/>
	<path d="M 61.456 62.675 h -33.21 c -1.085 0 -2.097 -0.537 -2.706 -1.436 c -0.609 -0.899 -0.732 -2.037 -0.329 -3.045 l 16.605 -41.588 c 0.499 -1.25 1.69 -2.057 3.035 -2.057 c 1.345 0 2.536 0.807 3.035 2.057 l 16.605 41.588 c 0.402 1.008 0.279 2.146 -0.33 3.045 C 63.553 62.139 62.541 62.675 61.456 62.675 z M 43.673 17.347 L 27.068 58.937 c -0.159 0.396 -0.112 0.827 0.127 1.181 c 0.24 0.354 0.623 0.558 1.05 0.558 h 33.21 c 0.427 0 0.81 -0.203 1.05 -0.557 c 0.239 -0.354 0.286 -0.785 0.128 -1.182 L 46.028 17.347 c -0.295 -0.74 -0.976 -0.798 -1.178 -0.798 S 43.968 16.607 43.673 17.347 L 43.673 17.347 z" style="stroke: none; stroke-width: 1; stroke-dasharray: none; stroke-linecap: butt; stroke-linejoin: miter; stroke-miterlimit: 10; fill: rgb(255,255,255); fill-rule: nonzero; opacity: 1;" transform=" matrix(1 0 0 1 0 0) " stroke-linecap="round"/>
	<path d="M 61.629 54.175 H 28.072 l -2.347 5.878 c -0.396 0.993 0.335 2.072 1.404 2.072 h 35.444 c 1.069 0 1.8 -1.079 1.404 -2.072 L 61.629 54.175 z" style="stroke: none; stroke-width: 1; stroke-dasharray: none; stroke-linecap: butt; stroke-linejoin: miter; stroke-miterlimit: 10; fill: rgb(255,255,255); fill-rule: nonzero; opacity: 1;" transform=" matrix(1 0 0 1 0 0) " stroke-linecap="round"/>
	<path d="M 62.572 63.125 H 27.128 c -0.834 0 -1.611 -0.412 -2.079 -1.103 c -0.468 -0.69 -0.563 -1.565 -0.254 -2.34 l 2.599 -6.508 h 34.912 l 2.599 6.507 c 0.31 0.775 0.215 1.649 -0.253 2.341 C 64.185 62.713 63.406 63.125 62.572 63.125 z M 28.749 55.175 l -2.096 5.249 c -0.087 0.219 -0.005 0.393 0.052 0.477 c 0.057 0.084 0.188 0.225 0.423 0.225 h 35.444 c 0.236 0 0.367 -0.141 0.424 -0.225 s 0.14 -0.258 0.052 -0.477 l -2.097 -5.249 H 28.749 z" style="stroke: none; stroke-width: 1; stroke-dasharray: none; stroke-linecap: butt; stroke-linejoin: miter; stroke-miterlimit: 10; fill: rgb(255,255,255); fill-rule: nonzero; opacity: 1;" transform=" matrix(1 0 0 1 0 0) " stroke-linecap="round"/>
	<path d="M 49.563 23.953 l -3.309 -8.287 c -0.506 -1.268 -2.301 -1.268 -2.807 0 l -3.309 8.287 H 49.563 z" style="stroke: none; stroke-width: 1; stroke-dasharray: none; stroke-linecap: butt; stroke-linejoin: miter; stroke-miterlimit: 10; fill: rgb(255,255,255); fill-rule: nonzero; opacity: 1;" transform=" matrix(1 0 0 1 0 0) " stroke-linecap="round"/>
	<path d="M 51.038 24.953 H 38.662 l 3.856 -9.657 c 0.383 -0.96 1.299 -1.581 2.333 -1.581 c 0 0 0 0 0 0 c 1.033 0 1.949 0.621 2.332 1.581 L 51.038 24.953 z M 41.614 22.953 h 6.473 l -2.762 -6.916 c -0.116 -0.29 -0.371 -0.322 -0.475 -0.322 l 0 0 c -0.104 0 -0.359 0.031 -0.475 0.322 L 41.614 22.953 z" style="stroke: none; stroke-width: 1; stroke-dasharray: none; stroke-linecap: butt; stroke-linejoin: miter; stroke-miterlimit: 10; fill: rgb(255,255,255); fill-rule: nonzero; opacity: 1;" transform=" matrix(1 0 0 1 0 0) " stroke-linecap="round"/>
	<polygon points="57.01,42.61 54.18,35.52 35.52,35.52 32.69,42.61 " style="stroke: none; stroke-width: 1; stroke-dasharray: none; stroke-linecap: butt; stroke-linejoin: miter; stroke-miterlimit: 10; fill: rgb(255,255,255); fill-rule: nonzero; opacity: 1;" transform="  matrix(1 0 0 1 0 0) "/>
	<path d="M 58.487 43.61 H 31.213 l 3.631 -9.092 h 20.015 L 58.487 43.61 z M 34.165 41.61 h 21.371 l -2.033 -5.092 H 36.198 L 34.165 41.61 z" style="stroke: none; stroke-width: 1; stroke-dasharray: none; stroke-linecap: butt; stroke-linejoin: miter; stroke-miterlimit: 10; fill: rgb(255,255,255); fill-rule: nonzero; opacity: 1;" transform=" matrix(1 0 0 1 0 0) " stroke-linecap="round"/>
	<path d="M 64.735 60.245 H 24.966 c -1.714 0 -3.104 1.39 -3.104 3.104 v 0.561 c 0 1.714 1.39 3.104 3.104 3.104 h 39.768 c 1.714 0 3.104 -1.39 3.104 -3.104 v -0.561 C 67.839 61.635 66.449 60.245 64.735 60.245 z" style="stroke: none; stroke-width: 1; stroke-dasharray: none; stroke-linecap: butt; stroke-linejoin: miter; stroke-miterlimit: 10; fill: rgb(255,255,255); fill-rule: nonzero; opacity: 1;" transform=" matrix(1 0 0 1 0 0) " stroke-linecap="round"/>
	<path d="M 64.734 68.015 H 24.966 c -2.263 0 -4.104 -1.841 -4.104 -4.104 V 63.35 c 0 -2.264 1.841 -4.104 4.104 -4.104 h 39.768 c 2.264 0 4.104 1.841 4.104 4.104 v 0.561 C 68.839 66.174 66.998 68.015 64.734 68.015 z M 24.966 61.245 c -1.16 0 -2.104 0.944 -2.104 2.104 v 0.561 c 0 1.16 0.944 2.104 2.104 2.104 h 39.768 c 1.16 0 2.104 -0.944 2.104 -2.104 V 63.35 c 0 -1.16 -0.944 -2.104 -2.104 -2.104 H 24.966 z" style="stroke: none; stroke-width: 1; stroke-dasharray: none; stroke-linecap: butt; stroke-linejoin: miter; stroke-miterlimit: 10; fill: rgb(255,255,255); fill-rule: nonzero; opacity: 1;" transform=" matrix(1 0 0 1 0 0) " stroke-linecap="round"/>
</g>
</svg>