<svg width="19" height="26" xmlns="http://www.w3.org/2000/svg" xml:space="preserve" version="1.1">

 <g>
  <title>Layer 1</title>
  <g stroke=" none" id="svg_1" fill-rule=" nonzero" fill=" none" stroke-miterlimit="10" stroke-linejoin=" miter" stroke-linecap=" butt" stroke-dasharray=" none" stroke-width="0" transform="translate(1.40659 1.40659) scale(2.81 2.81)">
   <path stroke=" none" id="svg_2" fill-rule=" nonzero" fill=" rgb(209,36,36)" stroke-miterlimit="10" stroke-linejoin=" miter" stroke-dasharray=" none" stroke-linecap=" butt" d="m2.87198,-0.40716c-1.76172,0 -3.195,1.27765 -3.195,2.84808c0,0.43688 0.10839,0.85644 0.32248,1.24786c0.30438,0.54478 1.24191,1.95754 2.14858,3.32383l0.46223,0.69703c0.0543,0.08204 0.15456,0.13319 0.26171,0.13319c0.10695,0 0.20731,-0.05106 0.26171,-0.13319l0.46994,-0.70849c0.89917,-1.35529 1.82887,-2.75669 2.13624,-3.30394l0.00617,-0.01063c0.21297,-0.38977 0.32094,-0.80896 0.32094,-1.24566c-0.0001,-1.57043 -1.43328,-2.84808 -3.195,-2.84808z"/>
   <path stroke=" none" id="svg_3" fill-rule=" nonzero" fill=" rgb(255,255,255)" stroke-miterlimit="10" stroke-linejoin=" miter" stroke-dasharray=" none" stroke-linecap=" butt" d="m2.87198,4.43476c-1.21712,0 -2.2073,-0.88266 -2.2073,-1.96763s0.99017,-1.96753 2.2073,-1.96753s2.2073,0.88266 2.2073,1.96763s-0.99017,1.96753 -2.2073,1.96753z"/>
   <path stroke=" none" id="svg_4" fill-rule=" nonzero" fill=" rgb(209,36,36)" stroke-miterlimit="10" stroke-linejoin=" miter" stroke-dasharray=" none" stroke-linecap=" butt" d="m3.35426,3.60105l-0.96467,0c-0.05676,0 -0.10283,-0.04107 -0.10283,-0.09167l0,-0.52058l-0.58398,0c-0.05676,0 -0.10283,-0.04107 -0.10283,-0.09167l0,-0.86002c0,-0.0506 0.04607,-0.09167 0.10283,-0.09167l0.58398,0l0,-0.52048c0,-0.0506 0.04607,-0.09167 0.10283,-0.09167l0.96467,0c0.05687,0 0.10283,0.04107 0.10283,0.09167l0,0.52048l0.58398,0c0.05687,0 0.10283,0.04107 0.10283,0.09167l0,0.86002c0,0.0506 -0.04597,0.09167 -0.10283,0.09167l-0.58398,0l0,0.52058c0,0.0506 -0.04597,0.09167 -0.10283,0.09167z"/>
  </g>
  <g stroke="null">
   <g stroke="null">
    <title stroke="null">Layer 1</title>
    <g stroke=" none" transform="translate(1.40659 1.40659) scale(2.81 2.81)" stroke-width="0" stroke-dasharray=" none" stroke-linecap=" butt" stroke-linejoin=" miter" stroke-miterlimit="10" fill=" none" fill-rule=" nonzero" id="svg_5">
     <path stroke=" none" d="m2.96836,-0.47383c-1.7968,0 -3.25861,1.41089 -3.25861,3.14508c0,0.48245 0.11055,0.94575 0.3289,1.37799c0.31044,0.60158 1.26663,2.16168 2.19136,3.67045l0.47143,0.76972c0.05538,0.09059 0.15764,0.14708 0.26692,0.14708c0.10908,0 0.21144,-0.05638 0.26692,-0.14708l0.4793,-0.78238c0.91707,-1.49663 1.86529,-3.04416 2.17877,-3.64848l0.00629,-0.01174c0.2172,-0.43041 0.32733,-0.89332 0.32733,-1.37556c-0.0001,-1.7342 -1.46181,-3.14508 -3.25861,-3.14508z" stroke-linecap=" butt" stroke-dasharray=" none" stroke-linejoin=" miter" stroke-miterlimit="10" fill=" rgb(209,36,36)" fill-rule=" nonzero" id="svg_8"/>
     <path stroke=" none" d="m2.96836,4.87302c-1.24136,0 -2.25124,-0.9747 -2.25124,-2.17281s1.00989,-2.17271 2.25124,-2.17271s2.25124,0.9747 2.25124,2.17281s-1.00989,2.17271 -2.25124,2.17271z" stroke-linecap=" butt" stroke-dasharray=" none" stroke-linejoin=" miter" stroke-miterlimit="10" fill=" rgb(255,255,255)" fill-rule=" nonzero" id="svg_7"/>
     <path stroke=" none" d="m3.46025,3.95238l-0.98387,0c-0.0579,0 -0.10488,-0.04535 -0.10488,-0.10122l0,-0.57486l-0.59561,0c-0.0579,0 -0.10488,-0.04535 -0.10488,-0.10122l0,-0.9497c0,-0.05587 0.04699,-0.10122 0.10488,-0.10122l0.59561,0l0,-0.57476c0,-0.05587 0.04699,-0.10122 0.10488,-0.10122l0.98387,0c0.058,0 0.10488,0.04535 0.10488,0.10122l0,0.57476l0.59561,0c0.058,0 0.10488,0.04535 0.10488,0.10122l0,0.9497c0,0.05587 -0.04688,0.10122 -0.10488,0.10122l-0.59561,0l0,0.57486c0,0.05587 -0.04688,0.10122 -0.10488,0.10122z" stroke-linecap=" butt" stroke-dasharray=" none" stroke-linejoin=" miter" stroke-miterlimit="10" fill=" rgb(209,36,36)" fill-rule=" nonzero" id="svg_6"/>
    </g>
   </g>
  </g>
 </g>
</svg>