<svg width="22" height="21.000000000000004" xmlns="http://www.w3.org/2000/svg" xml:space="preserve" version="1.1">

 <g>
  <title>Layer 1</title>
  <g stroke="null">
   <g stroke=" none" fill-rule=" nonzero" fill=" none" stroke-miterlimit="10" stroke-linejoin=" miter" stroke-linecap=" butt" stroke-dasharray=" none" stroke-width="0" transform="translate(1.40659 1.40659) scale(2.81 2.81)">
    <path stroke=" none" fill-rule=" nonzero" fill=" rgb(224,125,17)" stroke-miterlimit="10" stroke-linejoin=" miter" stroke-dasharray=" none" stroke-linecap=" butt" d="m7.15132,3.30205l-3.59928,-3.69752c-0.09843,-0.10112 -0.25798,-0.10112 -0.35642,0l-3.59928,3.69752c-0.15878,0.16311 -0.04631,0.44194 0.17821,0.44194l0.54225,0c0.13918,0 0.25199,0.11589 0.25199,0.25887l0,2.80273c0,0.14298 0.11281,0.25887 0.25199,0.25887l1.36901,0c0.1539,0 0.27861,-0.12812 0.27861,-0.28622l0,-1.82757c0,-0.17323 0.1367,-0.31356 0.30523,-0.31356l1.20039,0c0.16862,0 0.30523,0.14043 0.30523,0.31356l0,1.82757c0,0.1581 0.12471,0.28622 0.27861,0.28622l1.36901,0c0.13918,0 0.25199,-0.11589 0.25199,-0.25887l0,-2.80273c0,-0.14298 0.11281,-0.25887 0.25199,-0.25887l0.54225,0c0.22452,0 0.3369,-0.27883 0.17821,-0.44194z"/>
    <path stroke=" none" fill-rule=" nonzero" fill=" rgb(224,125,17)" stroke-miterlimit="10" stroke-linejoin=" miter" stroke-dasharray=" none" stroke-linecap=" butt" d="m3.05165,6.34862l-0.14389,0c-0.09424,0 -0.17068,-0.07852 -0.17068,-0.17534l0,0c0,-0.09681 0.07644,-0.17534 0.17068,-0.17534l0.14389,0c0.09424,0 0.17068,0.07852 0.17068,0.17534l0,0c0,0.09681 -0.07644,0.17534 -0.17068,0.17534z"/>
   </g>
  </g>
 </g>
</svg>