<svg width="25" height="25" xmlns="http://www.w3.org/2000/svg" xml:space="preserve" version="1.1">

 <g>
  <title>Layer 1</title>
  <g stroke="null">
   <g stroke=" none" fill-rule=" nonzero" fill=" none" stroke-miterlimit="10" stroke-linejoin=" miter" stroke-linecap=" butt" stroke-dasharray=" none" stroke-width="0" transform="translate(1.40659 1.40659) scale(2.81 2.81)">
    <rect stroke=" none" fill-rule=" nonzero" fill=" rgb(210,217,231)" stroke-miterlimit="10" stroke-linejoin=" miter" stroke-linecap=" butt" stroke-dasharray=" none" height="0.81337" width="5.22415" y="0.97834" x="1.3211"/>
    <path stroke=" none" fill-rule=" nonzero" fill=" rgb(235,239,245)" stroke-miterlimit="10" stroke-linejoin=" miter" stroke-dasharray=" none" stroke-linecap=" butt" d="m6.25402,1.05827c0,0.55225 0.40487,1.00004 0.90442,1.00004l0.00409,0c0.56941,-0.00011 1.03101,-0.51051 1.03101,-1.14012s-0.4616,-1.14001 -1.03101,-1.14001l-3.25028,0l-3.25028,0c-0.56941,0 -1.03101,0.5104 -1.03101,1.14001s0.4616,1.14001 1.03101,1.14001l0.00409,0c0.49945,0 0.90442,-0.44768 0.90442,-1.00004l4.68354,0l0,0.00011z"/>
    <rect stroke=" none" fill-rule=" nonzero" fill=" rgb(235,239,245)" stroke-miterlimit="10" stroke-linejoin=" miter" stroke-linecap=" butt" stroke-dasharray=" none" height="4.72423" width="4.16842" y="1.74652" x="1.82804"/>
    <path stroke=" none" fill-rule=" nonzero" fill=" rgb(210,217,231)" stroke-miterlimit="10" stroke-linejoin=" miter" stroke-dasharray=" none" stroke-linecap=" butt" d="m3.49502,6.47076l-0.91688,0l0,-3.55108c0,-0.27995 0.20521,-0.50696 0.45849,-0.50696l0,0c0.25318,0 0.45849,0.22691 0.45849,0.50696l0,3.55108l-0.0001,0z"/>
    <path stroke=" none" fill-rule=" nonzero" fill=" rgb(210,217,231)" stroke-miterlimit="10" stroke-linejoin=" miter" stroke-dasharray=" none" stroke-linecap=" butt" d="m5.24645,6.47076l-0.91688,0l0,-3.55108c0,-0.27995 0.20521,-0.50696 0.45849,-0.50696l0,0c0.25318,0 0.45849,0.22691 0.45849,0.50696l0,3.55108l-0.0001,0z"/>
    <path stroke=" none" fill-rule=" nonzero" fill=" rgb(210,217,231)" stroke-miterlimit="10" stroke-linejoin=" miter" stroke-dasharray=" none" stroke-linecap=" butt" d="m6.78178,7.3022l-5.73907,0l0,0c0,-0.45919 0.33667,-0.83145 0.75195,-0.83145l4.23507,0c0.41538,0 0.75205,0.37226 0.75205,0.83145l0,0z"/>
    <rect stroke=" none" fill-rule=" nonzero" fill=" rgb(235,239,245)" stroke-miterlimit="10" stroke-linejoin=" miter" stroke-linecap=" butt" stroke-dasharray=" none" height="0.98767" width="6.49199" y="7.30242" x="0.66625"/>
    <path stroke=" none" fill-rule=" nonzero" fill=" rgb(133,139,161)" stroke-miterlimit="10" stroke-linejoin=" miter" stroke-dasharray=" none" stroke-linecap=" butt" d="m6.25402,1.16586l-4.68354,0c-0.05371,0 -0.0973,-0.0482 -0.0973,-0.10759c0,-0.38183 -0.28091,-0.69244 -0.62624,-0.69244c-0.05371,0 -0.0973,-0.0482 -0.0973,-0.10759s0.04359,-0.10759 0.0973,-0.10759c0.41966,0 0.76674,0.35009 0.815,0.80003l4.50041,0c0.04826,-0.44994 0.39544,-0.80003 0.8151,-0.80003c0.05381,0 0.0973,0.0482 0.0973,0.10759s-0.04349,0.10759 -0.0973,0.10759c-0.34532,0 -0.62624,0.31061 -0.62624,0.69244c0.0001,0.05939 -0.0434,0.10759 -0.0972,0.10759z"/>
    <path stroke=" none" fill-rule=" nonzero" fill=" rgb(133,139,161)" stroke-miterlimit="10" stroke-linejoin=" miter" stroke-dasharray=" none" stroke-linecap=" butt" d="m0.1958,1.08582c-0.05371,0 -0.0973,-0.0482 -0.0973,-0.10759c0,-0.45639 0.33579,-0.82757 0.74845,-0.82757c0.05371,0 0.0973,0.0482 0.0973,0.10759s-0.04359,0.10759 -0.0973,0.10759c-0.30543,0 -0.55384,0.27478 -0.55384,0.6124c0,0.05939 -0.04359,0.10759 -0.0973,0.10759z"/>
    <path stroke=" none" fill-rule=" nonzero" fill=" rgb(133,139,161)" stroke-miterlimit="10" stroke-linejoin=" miter" stroke-dasharray=" none" stroke-linecap=" butt" d="m0.41823,1.54856c-0.01868,0 -0.03766,-0.00592 -0.05439,-0.0184c-0.16619,-0.12416 -0.26544,-0.33041 -0.26544,-0.55193c0,-0.05939 0.04359,-0.10759 0.0973,-0.10759s0.0973,0.0482 0.0973,0.10759c0,0.14987 0.06714,0.28952 0.17972,0.37366c0.04456,0.03325 0.05624,0.10017 0.02617,0.14933c-0.01878,0.03077 -0.04943,0.04734 -0.08066,0.04734z"/>
    <path stroke=" none" fill-rule=" nonzero" fill=" rgb(133,139,161)" stroke-miterlimit="10" stroke-linejoin=" miter" stroke-dasharray=" none" stroke-linecap=" butt" d="m7.16253,2.1658c-0.55647,0 -1.00581,-0.49685 -1.00581,-1.10752c0,-0.05939 0.04349,-0.10759 0.0973,-0.10759s0.0973,0.0482 0.0973,0.10759c0,0.49211 0.36206,0.89234 0.80712,0.89234c0.51891,0 0.9378,-0.46317 0.9378,-1.03242c0,-0.56936 -0.41889,-1.03242 -0.93371,-1.03242l-6.50055,0c-0.51483,0 -0.93371,0.46317 -0.93371,1.03253c0,0.56925 0.41889,1.03242 0.93371,1.03242c0.44905,0 0.81111,-0.40034 0.81111,-0.89234c0,-0.05939 0.04359,-0.10759 0.0973,-0.10759s0.0973,0.0482 0.0973,0.10759c0,0.61068 -0.44934,1.10752 -1.00172,1.10752c-0.62614,-0.00011 -1.1323,-0.55968 -1.1323,-1.2476s0.50617,-1.24771 1.12831,-1.24771l6.50055,0c0.62215,0 1.12831,0.55968 1.12831,1.24771s-0.50617,1.24749 -1.12831,1.24749z"/>
    <path stroke=" none" fill-rule=" nonzero" fill=" rgb(133,139,161)" stroke-miterlimit="10" stroke-linejoin=" miter" stroke-dasharray=" none" stroke-linecap=" butt" d="m7.6287,1.08582c-0.05381,0 -0.0973,-0.0482 -0.0973,-0.10759c0,-0.33772 -0.24851,-0.6124 -0.55384,-0.6124c-0.05381,0 -0.0973,-0.0482 -0.0973,-0.10759s0.04349,-0.10759 0.0973,-0.10759c0.41266,0 0.74845,0.37129 0.74845,0.82757c0,0.05939 -0.04349,0.10759 -0.0973,0.10759z"/>
    <path stroke=" none" fill-rule=" nonzero" fill=" rgb(133,139,161)" stroke-miterlimit="10" stroke-linejoin=" miter" stroke-dasharray=" none" stroke-linecap=" butt" d="m7.40627,1.54856c-0.03123,0 -0.06198,-0.01657 -0.08076,-0.04734c-0.03007,-0.04928 -0.01829,-0.11609 0.02627,-0.14933c0.11248,-0.08403 0.17972,-0.22379 0.17972,-0.37366c0,-0.05939 0.04349,-0.10759 0.0973,-0.10759s0.0973,0.0482 0.0973,0.10759c0,0.22153 -0.09925,0.42777 -0.26544,0.55193c-0.01674,0.01248 -0.03561,0.0184 -0.05439,0.0184z"/>
    <path stroke=" none" fill-rule=" nonzero" fill=" rgb(133,139,161)" stroke-miterlimit="10" stroke-linejoin=" miter" stroke-dasharray=" none" stroke-linecap=" butt" d="m6.50311,1.85368l-5.18172,0c-0.05371,0 -0.0973,-0.0482 -0.0973,-0.10759s0.04359,-0.10759 0.0973,-0.10759l5.18172,0c0.05381,0 0.0973,0.0482 0.0973,0.10759s-0.04349,0.10759 -0.0973,0.10759z"/>
    <path stroke=" none" fill-rule=" nonzero" fill=" rgb(133,139,161)" stroke-miterlimit="10" stroke-linejoin=" miter" stroke-dasharray=" none" stroke-linecap=" butt" d="m5.99665,6.57834l-4.16871,0c-0.05371,0 -0.0973,-0.04809 -0.0973,-0.10759l0,-4.72466c0,-0.05939 0.04359,-0.10759 0.0973,-0.10759l4.16871,0c0.05381,0 0.0973,0.0482 0.0973,0.10759l0,4.72466c0,0.0595 -0.04349,0.10759 -0.0973,0.10759zm-4.07141,-0.21518l3.97411,0l0,-4.50949l-3.97411,0l0,4.50949z"/>
    <path stroke=" none" fill-rule=" nonzero" fill=" rgb(133,139,161)" stroke-miterlimit="10" stroke-linejoin=" miter" stroke-dasharray=" none" stroke-linecap=" butt" d="m6.78169,7.40979l-5.73897,0c-0.05371,0 -0.0973,-0.04809 -0.0973,-0.10759c0,-0.51783 0.38103,-0.93904 0.84925,-0.93904l4.23507,0c0.46831,0 0.84925,0.42121 0.84925,0.93904c0,0.0595 -0.04349,0.10759 -0.0973,0.10759zm-5.63447,-0.21518l5.52997,0c-0.04709,-0.34827 -0.31944,-0.61627 -0.64735,-0.61627l-4.23517,0c-0.32791,0 -0.60026,0.268 -0.64745,0.61627z"/>
    <path stroke=" none" fill-rule=" nonzero" fill=" rgb(133,139,161)" stroke-miterlimit="10" stroke-linejoin=" miter" stroke-dasharray=" none" stroke-linecap=" butt" d="m7.15844,8.39714l-6.49238,0c-0.05371,0 -0.0973,-0.04809 -0.0973,-0.10759l0,-0.98734c0,-0.0595 0.04359,-0.10759 0.0973,-0.10759l6.49248,0c0.05381,0 0.0973,0.04809 0.0973,0.10759l0,0.98734c-0.0001,0.05939 -0.04359,0.10759 -0.0974,0.10759zm-6.39508,-0.21518l6.29787,0l0,-0.77217l-6.29787,0l0,0.77217z"/>
    <path stroke=" none" fill-rule=" nonzero" fill=" rgb(133,139,161)" stroke-miterlimit="10" stroke-linejoin=" miter" stroke-dasharray=" none" stroke-linecap=" butt" d="m3.49492,6.57834l-0.91688,0c-0.05371,0 -0.0973,-0.04809 -0.0973,-0.10759l0,-3.55108c0,-0.3388 0.24929,-0.61444 0.55569,-0.61444s0.55569,0.27564 0.55569,0.61444l0,3.55108c0.0001,0.0595 -0.0434,0.10759 -0.0972,0.10759zm-0.81948,-0.21518l0.72227,0l0,-3.44349c0,-0.22013 -0.16201,-0.39926 -0.36109,-0.39926s-0.36109,0.17914 -0.36109,0.39926l0,3.44349l-0.0001,0z"/>
    <path stroke=" none" fill-rule=" nonzero" fill=" rgb(133,139,161)" stroke-miterlimit="10" stroke-linejoin=" miter" stroke-dasharray=" none" stroke-linecap=" butt" d="m5.24645,6.57834l-0.91697,0c-0.05381,0 -0.0973,-0.04809 -0.0973,-0.10759l0,-3.55108c0,-0.3388 0.24939,-0.61444 0.55579,-0.61444s0.55579,0.27564 0.55579,0.61444l0,3.55108c0,0.0595 -0.04349,0.10759 -0.0973,0.10759zm-0.81967,-0.21518l0.72237,0l0,-3.44349c0,-0.22013 -0.16201,-0.39926 -0.36119,-0.39926s-0.36119,0.17914 -0.36119,0.39926l0,3.44349z"/>
    <circle stroke=" none" fill-rule=" nonzero" fill=" rgb(133,139,161)" stroke-miterlimit="10" stroke-linejoin=" miter" stroke-linecap=" butt" stroke-dasharray=" none" r="0.12167" cy="0.9466" cx="0.84675"/>
    <circle stroke=" none" fill-rule=" nonzero" fill=" rgb(133,139,161)" stroke-miterlimit="10" stroke-linejoin=" miter" stroke-linecap=" butt" stroke-dasharray=" none" r="0.12167" cy="0.9466" cx="6.97678"/>
   </g>
  </g>
 </g>
</svg>