<svg width="27" height="27" xmlns="http://www.w3.org/2000/svg" xml:space="preserve" version="1.1">

 <g>
  <title>Layer 1</title>
  <g stroke=" none" id="svg_1" fill-rule=" nonzero" fill=" none" stroke-miterlimit="10" stroke-linejoin=" miter" stroke-linecap=" butt" stroke-dasharray=" none" stroke-width="0" transform="translate(1.40659 1.40659) scale(2.81 2.81)">
   <rect stroke=" none" id="svg_2" fill-rule=" nonzero" fill=" rgb(128,85,166)" stroke-miterlimit="10" stroke-linejoin=" miter" stroke-linecap=" butt" stroke-dasharray=" none" height="0.84911" width="5.96556" y="1.26297" x="1.25029"/>
   <path stroke=" none" id="svg_3" fill-rule=" nonzero" fill=" rgb(193,151,231)" stroke-miterlimit="10" stroke-linejoin=" miter" stroke-dasharray=" none" stroke-linecap=" butt" d="m6.8833,1.34642c0,0.57652 0.46233,1.04398 1.03278,1.04398l0.00467,0c0.65022,-0.00011 1.17733,-0.53294 1.17733,-1.19022s-0.52711,-1.19011 -1.17733,-1.19011l-3.71156,0l-3.71156,0c-0.65022,0 -1.17733,0.53283 -1.17733,1.19011s0.52711,1.19011 1.17733,1.19011l0.00467,0c0.57033,0 1.03278,-0.46735 1.03278,-1.04398l5.34823,0l0,0.00011z"/>
   <rect stroke=" none" id="svg_4" fill-rule=" nonzero" fill=" rgb(193,151,231)" stroke-miterlimit="10" stroke-linejoin=" miter" stroke-linecap=" butt" stroke-dasharray=" none" height="4.93183" width="4.76001" y="2.06491" x="1.82918"/>
   <path stroke=" none" id="svg_5" fill-rule=" nonzero" fill=" rgb(128,85,166)" stroke-miterlimit="10" stroke-linejoin=" miter" stroke-dasharray=" none" stroke-linecap=" butt" d="m3.73274,6.99674l-1.047,0l0,-3.70713c0,-0.29225 0.23433,-0.52924 0.52356,-0.52924l0,0c0.28911,0 0.52356,0.23688 0.52356,0.52924l0,3.70713l-0.00011,0z"/>
   <path stroke=" none" id="svg_6" fill-rule=" nonzero" fill=" rgb(128,85,166)" stroke-miterlimit="10" stroke-linejoin=" miter" stroke-dasharray=" none" stroke-linecap=" butt" d="m5.73274,6.99674l-1.047,0l0,-3.70713c0,-0.29225 0.23433,-0.52924 0.52356,-0.52924l0,0c0.28911,0 0.52356,0.23688 0.52356,0.52924l0,3.70713l-0.00011,0z"/>
   <path stroke=" none" id="svg_7" fill-rule=" nonzero" fill=" rgb(128,85,166)" stroke-miterlimit="10" stroke-linejoin=" miter" stroke-dasharray=" none" stroke-linecap=" butt" d="m7.48596,7.86472l-6.55356,0l0,0c0,-0.47937 0.38444,-0.86798 0.85867,-0.86798l4.83612,0c0.47433,0 0.85878,0.38862 0.85878,0.86798l0,0z"/>
   <rect stroke=" none" id="svg_8" fill-rule=" nonzero" fill=" rgb(193,151,231)" stroke-miterlimit="10" stroke-linejoin=" miter" stroke-linecap=" butt" stroke-dasharray=" none" height="1.03107" width="7.41334" y="7.86495" x="0.50251"/>
   <path stroke=" none" id="svg_9" fill-rule=" nonzero" fill=" rgb(39,38,40)" stroke-miterlimit="10" stroke-linejoin=" miter" stroke-dasharray=" none" stroke-linecap=" butt" d="m6.8833,1.45874l-5.34823,0c-0.06133,0 -0.11111,-0.05032 -0.11111,-0.11232c0,-0.39861 -0.32078,-0.72287 -0.71511,-0.72287c-0.06133,0 -0.11111,-0.05032 -0.11111,-0.11232s0.04978,-0.11232 0.11111,-0.11232c0.47922,0 0.87556,0.36548 0.93067,0.83519l5.13912,0c0.05511,-0.46971 0.45156,-0.83519 0.93078,-0.83519c0.06144,0 0.11111,0.05032 0.11111,0.11232s-0.04967,0.11232 -0.11111,0.11232c-0.39433,0 -0.71511,0.32426 -0.71511,0.72287c0.00011,0.062 -0.04956,0.11232 -0.111,0.11232z"/>
   <path stroke=" none" id="svg_10" fill-rule=" nonzero" fill=" rgb(39,38,40)" stroke-miterlimit="10" stroke-linejoin=" miter" stroke-dasharray=" none" stroke-linecap=" butt" d="m-0.03471,1.37517c-0.06133,0 -0.11111,-0.05032 -0.11111,-0.11232c0,-0.47645 0.38344,-0.86394 0.85467,-0.86394c0.06133,0 0.11111,0.05032 0.11111,0.11232s-0.04978,0.11232 -0.11111,0.11232c-0.34878,0 -0.63245,0.28686 -0.63245,0.63931c0,0.062 -0.04978,0.11232 -0.11111,0.11232z"/>
   <path stroke=" none" id="svg_11" fill-rule=" nonzero" fill=" rgb(39,38,40)" stroke-miterlimit="10" stroke-linejoin=" miter" stroke-dasharray=" none" stroke-linecap=" butt" d="m0.21929,1.85825c-0.02133,0 -0.043,-0.00618 -0.06211,-0.01921c-0.18978,-0.12961 -0.30311,-0.34492 -0.30311,-0.57618c0,-0.062 0.04978,-0.11232 0.11111,-0.11232s0.11111,0.05032 0.11111,0.11232c0,0.15646 0.07667,0.30224 0.20522,0.39008c0.05089,0.03471 0.06422,0.10457 0.02989,0.1559c-0.02144,0.03212 -0.05644,0.04942 -0.09211,0.04942z"/>
   <path stroke=" none" id="svg_12" fill-rule=" nonzero" fill=" rgb(39,38,40)" stroke-miterlimit="10" stroke-linejoin=" miter" stroke-dasharray=" none" stroke-linecap=" butt" d="m7.92074,2.50261c-0.63545,0 -1.14856,-0.51868 -1.14856,-1.15619c0,-0.062 0.04967,-0.11232 0.11111,-0.11232s0.11111,0.05032 0.11111,0.11232c0,0.51374 0.41344,0.93156 0.92167,0.93156c0.59256,0 1.07089,-0.48352 1.07089,-1.07779c0,-0.59438 -0.47833,-1.07779 -1.06622,-1.07779l-7.42312,0c-0.58789,0 -1.06622,0.48352 -1.06622,1.0779c0,0.59427 0.47833,1.07779 1.06622,1.07779c0.51278,0 0.92622,-0.41793 0.92622,-0.93156c0,-0.062 0.04978,-0.11232 0.11111,-0.11232s0.11111,0.05032 0.11111,0.11232c0,0.63751 -0.51311,1.15619 -1.14389,1.15619c-0.715,-0.00011 -1.293,-0.58427 -1.293,-1.30243s0.578,-1.30254 1.28845,-1.30254l7.42312,0c0.71045,0 1.28845,0.58427 1.28845,1.30254s-0.578,1.30231 -1.28845,1.30231z"/>
   <path stroke=" none" id="svg_13" fill-rule=" nonzero" fill=" rgb(39,38,40)" stroke-miterlimit="10" stroke-linejoin=" miter" stroke-dasharray=" none" stroke-linecap=" butt" d="m8.45308,1.37517c-0.06144,0 -0.11111,-0.05032 -0.11111,-0.11232c0,-0.35256 -0.28378,-0.63931 -0.63245,-0.63931c-0.06144,0 -0.11111,-0.05032 -0.11111,-0.11232s0.04967,-0.11232 0.11111,-0.11232c0.47122,0 0.85467,0.38761 0.85467,0.86394c0,0.062 -0.04967,0.11232 -0.11111,0.11232z"/>
   <path stroke=" none" id="svg_14" fill-rule=" nonzero" fill=" rgb(39,38,40)" stroke-miterlimit="10" stroke-linejoin=" miter" stroke-dasharray=" none" stroke-linecap=" butt" d="m8.19908,1.85825c-0.03567,0 -0.07078,-0.0173 -0.09222,-0.04942c-0.03433,-0.05144 -0.02089,-0.12119 0.03,-0.1559c0.12844,-0.08772 0.20522,-0.23362 0.20522,-0.39008c0,-0.062 0.04967,-0.11232 0.11111,-0.11232s0.11111,0.05032 0.11111,0.11232c0,0.23126 -0.11333,0.44657 -0.30311,0.57618c-0.01911,0.01303 -0.04067,0.01921 -0.06211,0.01921z"/>
   <path stroke=" none" id="svg_15" fill-rule=" nonzero" fill=" rgb(39,38,40)" stroke-miterlimit="10" stroke-linejoin=" miter" stroke-dasharray=" none" stroke-linecap=" butt" d="m7.16774,2.17678l-5.91712,0c-0.06133,0 -0.11111,-0.05032 -0.11111,-0.11232s0.04978,-0.11232 0.11111,-0.11232l5.91712,0c0.06144,0 0.11111,0.05032 0.11111,0.11232s-0.04967,0.11232 -0.11111,0.11232z"/>
   <path stroke=" none" id="svg_16" fill-rule=" nonzero" fill=" rgb(39,38,40)" stroke-miterlimit="10" stroke-linejoin=" miter" stroke-dasharray=" none" stroke-linecap=" butt" d="m6.58941,7.10906l-4.76034,0c-0.06133,0 -0.11111,-0.05021 -0.11111,-0.11232l0,-4.93228c0,-0.062 0.04978,-0.11232 0.11111,-0.11232l4.76034,0c0.06144,0 0.11111,0.05032 0.11111,0.11232l0,4.93228c0,0.06211 -0.04967,0.11232 -0.11111,0.11232zm-4.64923,-0.22463l4.53812,0l0,-4.70764l-4.53812,0l0,4.70764z"/>
   <path stroke=" none" id="svg_17" fill-rule=" nonzero" fill=" rgb(39,38,40)" stroke-miterlimit="10" stroke-linejoin=" miter" stroke-dasharray=" none" stroke-linecap=" butt" d="m7.48585,7.97704l-6.55345,0c-0.06133,0 -0.11111,-0.05021 -0.11111,-0.11232c0,-0.54058 0.43511,-0.9803 0.96978,-0.9803l4.83612,0c0.53478,0 0.96978,0.43972 0.96978,0.9803c0,0.06211 -0.04967,0.11232 -0.11111,0.11232zm-6.43412,-0.22463l6.31479,0c-0.05378,-0.36357 -0.36478,-0.64335 -0.73922,-0.64335l-4.83623,0c-0.37444,0 -0.68545,0.27978 -0.73933,0.64335z"/>
   <path stroke=" none" id="svg_18" fill-rule=" nonzero" fill=" rgb(39,38,40)" stroke-miterlimit="10" stroke-linejoin=" miter" stroke-dasharray=" none" stroke-linecap=" butt" d="m7.91608,9.00777l-7.41379,0c-0.06133,0 -0.11111,-0.05021 -0.11111,-0.11232l0,-1.03073c0,-0.06211 0.04978,-0.11232 0.11111,-0.11232l7.4139,0c0.06144,0 0.11111,0.05021 0.11111,0.11232l0,1.03073c-0.00011,0.062 -0.04978,0.11232 -0.11122,0.11232zm-7.30268,-0.22463l7.19168,0l0,-0.8061l-7.19168,0l0,0.8061z"/>
   <path stroke=" none" id="svg_19" fill-rule=" nonzero" fill=" rgb(39,38,40)" stroke-miterlimit="10" stroke-linejoin=" miter" stroke-dasharray=" none" stroke-linecap=" butt" d="m3.73263,7.10906l-1.047,0c-0.06133,0 -0.11111,-0.05021 -0.11111,-0.11232l0,-3.70713c0,-0.35369 0.28467,-0.64144 0.63456,-0.64144s0.63456,0.28776 0.63456,0.64144l0,3.70713c0.00011,0.06211 -0.04956,0.11232 -0.111,0.11232zm-0.93578,-0.22463l0.82478,0l0,-3.59481c0,-0.2298 -0.185,-0.41681 -0.41233,-0.41681s-0.41233,0.18701 -0.41233,0.41681l0,3.59481l-0.00011,0z"/>
   <path stroke=" none" id="svg_20" fill-rule=" nonzero" fill=" rgb(39,38,40)" stroke-miterlimit="10" stroke-linejoin=" miter" stroke-dasharray=" none" stroke-linecap=" butt" d="m5.73274,7.10906l-1.04711,0c-0.06144,0 -0.11111,-0.05021 -0.11111,-0.11232l0,-3.70713c0,-0.35369 0.28478,-0.64144 0.63467,-0.64144s0.63467,0.28776 0.63467,0.64144l0,3.70713c0,0.06211 -0.04967,0.11232 -0.11111,0.11232zm-0.936,-0.22463l0.82489,0l0,-3.59481c0,-0.2298 -0.185,-0.41681 -0.41244,-0.41681s-0.41244,0.18701 -0.41244,0.41681l0,3.59481z"/>
   <circle stroke=" none" id="svg_21" fill-rule=" nonzero" fill=" rgb(39,38,40)" stroke-miterlimit="10" stroke-linejoin=" miter" stroke-linecap=" butt" stroke-dasharray=" none" r="0.12316" cy="1.22984" cx="0.70862"/>
   <circle stroke=" none" id="svg_22" fill-rule=" nonzero" fill=" rgb(39,38,40)" stroke-miterlimit="10" stroke-linejoin=" miter" stroke-linecap=" butt" stroke-dasharray=" none" r="0.12316" cy="1.22984" cx="7.70863"/>
  </g>
 </g>
</svg>