<svg width="27" height="31" xmlns="http://www.w3.org/2000/svg" xml:space="preserve" version="1.1">
 <g>
  <title>Layer 1</title>
  <g id="svg_1" fill-rule=" nonzero" fill=" none" stroke-miterlimit="10" stroke-linejoin=" miter" stroke-linecap=" butt" stroke-dasharray=" none" stroke-width="0" stroke=" none" transform="translate(112.261 112.261) scale(0.34 0.34)">
   <path id="svg_2" fill-rule=" nonzero" fill=" rgb(127,178,65)" stroke-miterlimit="10" stroke-linejoin=" miter" stroke-dasharray=" none" stroke=" none" stroke-linecap=" butt" d="m-282.46735,-327.88876c2.639,0.961 4.659,2.757 6.26,5.115c5.117,-0.776 10.301,0.912 13.976,4.587c3.675,3.675 5.364,8.857 4.588,13.975c4.168,3.07 6.638,7.929 6.638,13.126c0,5.393 -2.644,10.387 -7.091,13.437c-0.76,2.672 -2.184,5.104 -4.135,7.055c-3.134,3.134 -7.323,4.754 -11.539,4.754c-3.088,0 -6.19,-0.869 -8.902,-2.649l0.549,-0.836l-10.447,-1.312c0,0 0,0 0,0l-0.216,0.977c-0.422,-0.094 -0.843,-0.204 -1.256,-0.329c-3.807,3.412 -8.875,4.69 -13.641,3.882c0.009,-0.082 0.048,-0.316 0.054,-0.379c-5.063,-3.616 -9.736,-11.475 -9.779,-17.926c-0.041,-6.216 2.696,-12.469 7.394,-16.172c-0.92,-6.117 1.123,-11.997 4.951,-16.687c3.961,-4.852 10.438,-6.889 16.416,-5.562c0.248,-2.89 3.212,-4.035 6.18,-5.056"/>
   <path id="svg_3" fill-rule=" nonzero" fill=" rgb(113,156,64)" stroke-miterlimit="10" stroke-linejoin=" miter" stroke-dasharray=" none" stroke=" none" stroke-linecap=" butt" d="m-307.63035,-266.48676c-5.062,-3.615 -8.893,-11.374 -8.935,-17.825c-0.041,-6.216 2.718,-12.047 7.415,-15.75c-0.92,-6.117 0.952,-12.328 5.086,-16.751c4.133,-4.423 9.991,-6.482 15.793,-5.591c1.564,-2.275 3.552,-4.128 5.804,-5.483c-2.12,-0.988 -4.455,-1.525 -6.866,-1.525c-5.197,0 -10.056,2.47 -13.126,6.639c-5.117,-0.777 -10.3,0.912 -13.975,4.587s-5.364,8.857 -4.587,13.975c-4.169,3.07 -6.638,7.929 -6.638,13.126c0,5.393 2.644,10.387 7.091,13.437c0.759,2.67 2.183,5.103 4.135,7.055c2.456,2.456 5.534,3.942 8.749,4.487c0.008,-0.083 0.048,-0.319 0.054,-0.381z"/>
   <path id="svg_4" fill-rule=" nonzero" fill=" rgb(160,126,99)" stroke-miterlimit="10" stroke-linejoin=" miter" stroke-dasharray=" none" stroke=" none" stroke-linecap=" butt" d="m-276.80935,-274.43576l-3.031,-2.947c-0.387,-0.375 -0.999,-0.378 -1.388,-0.007l-3.865,3.69l0,-14.823c0,-0.552 -0.447,-1 -1,-1l-4.275,0c-0.552,0 -1,0.448 -1,1l0,7.186l-4.745,-4.919c-0.377,-0.391 -1.063,-0.391 -1.439,0l-2.52,2.614c-0.369,0.382 -0.374,0.986 -0.013,1.375l6.515,7.007l0,34.848c0,0.553 0.448,1 1,1l6.477,0c0.553,0 1,-0.447 1,-1l0,-24.71l8.276,-7.872c0.197,-0.188 0.309,-0.447 0.311,-0.719c0.002,-0.273 -0.108,-0.533 -0.303,-0.723z"/>
  </g>
 </g>

</svg>