<svg width="22" height="29" xmlns="http://www.w3.org/2000/svg" xml:space="preserve" version="1.1">

 <g>
  <title>Layer 1</title>
  <g stroke="null">
   <g stroke="null">
    <title stroke="null">Layer 1</title>
    <g stroke=" none" transform="translate(1.40659 1.40659) scale(2.81 2.81)" stroke-width="0" stroke-dasharray=" none" stroke-linecap=" butt" stroke-linejoin=" miter" stroke-miterlimit="10" fill=" none" fill-rule=" nonzero" id="svg_5">
     <path stroke=" none" d="m3.38252,-0.44841c-2.06661,0 -3.74794,1.59 -3.74794,3.54436c0,0.54369 0.12715,1.06582 0.37829,1.55293c0.35706,0.67795 1.45683,2.43611 2.52042,4.13642l0.54222,0.86744c0.06369,0.10209 0.18131,0.16575 0.30701,0.16575c0.12546,0 0.24319,-0.06354 0.30701,-0.16575l0.55127,-0.8817c1.05478,-1.68663 2.14538,-3.43062 2.50594,-4.11167l0.00723,-0.01323c0.24982,-0.48505 0.37648,-1.00673 0.37648,-1.55019c-0.00012,-1.95437 -1.68132,-3.54436 -3.74794,-3.54436z" stroke-linecap=" butt" stroke-dasharray=" none" stroke-linejoin=" miter" stroke-miterlimit="10" fill=" rgb(209,36,36)" fill-rule=" nonzero" id="svg_8"/>
     <path stroke=" none" d="m3.38252,5.57724c-1.42776,0 -2.5893,-1.09845 -2.5893,-2.44866s1.16153,-2.44854 2.5893,-2.44854s2.5893,1.09845 2.5893,2.44866s-1.16153,2.44854 -2.5893,2.44854z" stroke-linecap=" butt" stroke-dasharray=" none" stroke-linejoin=" miter" stroke-miterlimit="10" fill=" rgb(255,255,255)" fill-rule=" nonzero" id="svg_7"/>
     <path stroke=" none" d="m3.94827,4.53972l-1.13161,0c-0.06659,0 -0.12063,-0.05111 -0.12063,-0.11408l0,-0.64784l-0.68505,0c-0.06659,0 -0.12063,-0.05111 -0.12063,-0.11408l0,-1.07026c0,-0.06297 0.05405,-0.11408 0.12063,-0.11408l0.68505,0l0,-0.64773c0,-0.06297 0.05405,-0.11408 0.12063,-0.11408l1.13161,0c0.06671,0 0.12063,0.05111 0.12063,0.11408l0,0.64773l0.68505,0c0.06671,0 0.12063,0.05111 0.12063,0.11408l0,1.07026c0,0.06297 -0.05392,0.11408 -0.12063,0.11408l-0.68505,0l0,0.64784c0,0.06297 -0.05392,0.11408 -0.12063,0.11408z" stroke-linecap=" butt" stroke-dasharray=" none" stroke-linejoin=" miter" stroke-miterlimit="10" fill=" rgb(209,36,36)" fill-rule=" nonzero" id="svg_6"/>
    </g>
   </g>
  </g>
 </g>
</svg>