<svg width="16" height="21" xmlns="http://www.w3.org/2000/svg" xml:space="preserve" version="1.1">

 <g>
  <title>Layer 1</title>
  <g stroke=" none" id="svg_1" fill-rule=" nonzero" fill=" none" stroke-miterlimit="10" stroke-linejoin=" miter" stroke-linecap=" butt" stroke-dasharray=" none" stroke-width="0" transform="translate(1.40659 1.40659) scale(2.81 2.81)">
   <path stroke=" none" id="svg_2" fill-rule=" nonzero" fill=" rgb(209,36,36)" stroke-miterlimit="10" stroke-linejoin=" miter" stroke-dasharray=" none" stroke-linecap=" butt" d="m2.37198,-0.40716c-1.48602,0 -2.695,1.12278 -2.695,2.50286c0,0.38393 0.09142,0.75263 0.27202,1.0966c0.25675,0.47874 1.04755,1.72026 1.81234,2.92095l0.38989,0.61254c0.0458,0.0721 0.13037,0.11705 0.22075,0.11705c0.09021,0 0.17487,-0.04487 0.22075,-0.11705l0.3964,-0.62261c0.75845,-1.19101 1.54266,-2.42255 1.80193,-2.90346l0.0052,-0.00934c0.17964,-0.34252 0.27071,-0.7109 0.27071,-1.09467c-0.00009,-1.38008 -1.20898,-2.50286 -2.695,-2.50286z"/>
   <path stroke=" none" id="svg_3" fill-rule=" nonzero" fill=" rgb(255,255,255)" stroke-miterlimit="10" stroke-linejoin=" miter" stroke-dasharray=" none" stroke-linecap=" butt" d="m2.37198,3.84786c-1.02665,0 -1.86187,-0.77567 -1.86187,-1.72913s0.83522,-1.72904 1.86187,-1.72904s1.86187,0.77567 1.86187,1.72913s-0.83522,1.72904 -1.86187,1.72904z"/>
   <path stroke=" none" id="svg_4" fill-rule=" nonzero" fill=" rgb(209,36,36)" stroke-miterlimit="10" stroke-linejoin=" miter" stroke-dasharray=" none" stroke-linecap=" butt" d="m2.77878,3.11521l-0.8137,0c-0.04788,0 -0.08674,-0.03609 -0.08674,-0.08056l0,-0.45748l-0.49259,0c-0.04788,0 -0.08674,-0.03609 -0.08674,-0.08056l0,-0.75577c0,-0.04447 0.03886,-0.08056 0.08674,-0.08056l0.49259,0l0,-0.45739c0,-0.04447 0.03886,-0.08056 0.08674,-0.08056l0.8137,0c0.04797,0 0.08674,0.03609 0.08674,0.08056l0,0.45739l0.49259,0c0.04797,0 0.08674,0.03609 0.08674,0.08056l0,0.75577c0,0.04447 -0.03877,0.08056 -0.08674,0.08056l-0.49259,0l0,0.45748c0,0.04447 -0.03877,0.08056 -0.08674,0.08056z"/>
  </g>
 </g>
</svg>