<svg width="23" height="30" xmlns="http://www.w3.org/2000/svg" xml:space="preserve" version="1.1">

 <g>
  <title>Layer 1</title>
  <g stroke=" none" id="svg_1" fill-rule=" nonzero" fill=" none" stroke-miterlimit="10" stroke-linejoin=" miter" stroke-linecap=" butt" stroke-dasharray=" none" stroke-width="0" transform="translate(1.40659 1.40659) scale(2.81 2.81)">
   <path stroke=" none" id="svg_2" fill-rule=" nonzero" fill=" rgb(209,36,36)" stroke-miterlimit="10" stroke-linejoin=" miter" stroke-dasharray=" none" stroke-linecap=" butt" d="m3.60285,-0.22923c-1.9685,0 -3.57,1.54867 -3.57,3.45222c0,0.52956 0.12111,1.03811 0.36033,1.51256c0.34011,0.66033 1.38767,2.37278 2.40076,4.02889l0.51648,0.84489c0.06067,0.09944 0.1727,0.16144 0.29243,0.16144c0.1195,0 0.23164,-0.06189 0.29243,-0.16144l0.5251,-0.85878c1.0047,-1.64278 2.04353,-3.34144 2.38697,-4.00478l0.00689,-0.01289c0.23796,-0.47244 0.35861,-0.98056 0.35861,-1.50989c-0.00011,-1.90356 -1.6015,-3.45222 -3.57,-3.45222z"/>
   <path stroke=" none" id="svg_3" fill-rule=" nonzero" fill=" rgb(255,255,255)" stroke-miterlimit="10" stroke-linejoin=" miter" stroke-dasharray=" none" stroke-linecap=" butt" d="m3.60285,5.63977c-1.35998,0 -2.46637,-1.06989 -2.46637,-2.385s1.10639,-2.38489 2.46637,-2.38489s2.46637,1.06989 2.46637,2.385s-1.10639,2.38489 -2.46637,2.38489z"/>
   <path stroke=" none" id="svg_4" fill-rule=" nonzero" fill=" rgb(209,36,36)" stroke-miterlimit="10" stroke-linejoin=" miter" stroke-dasharray=" none" stroke-linecap=" butt" d="m4.14174,4.62922l-1.07789,0c-0.06343,0 -0.1149,-0.04978 -0.1149,-0.11111l0,-0.631l-0.65253,0c-0.06343,0 -0.1149,-0.04978 -0.1149,-0.11111l0,-1.04244c0,-0.06133 0.05148,-0.11111 0.1149,-0.11111l0.65253,0l0,-0.63089c0,-0.06133 0.05148,-0.11111 0.1149,-0.11111l1.07789,0c0.06354,0 0.1149,0.04978 0.1149,0.11111l0,0.63089l0.65253,0c0.06354,0 0.1149,0.04978 0.1149,0.11111l0,1.04244c0,0.06133 -0.05136,0.11111 -0.1149,0.11111l-0.65253,0l0,0.631c0,0.06133 -0.05136,0.11111 -0.1149,0.11111z"/>
  </g>
 </g>
</svg>