<svg version="1.1" id="Layer_1" xmlns="http://www.w3.org/2000/svg" xmlns:xlink="http://www.w3.org/1999/xlink" x="0px" y="0px"
	 width="100%" viewBox="0 0 128 128" enable-background="new 0 0 128 128" xml:space="preserve">
<path fill="#000000" opacity="1.000000" stroke="none" 
	d="
M1.000000,55.000000 
	C1.000000,36.666668 1.000000,18.833334 1.000000,1.000000 
	C43.666668,1.000000 86.333336,1.000000 129.000000,1.000000 
	C129.000000,43.666668 129.000000,86.333336 129.000000,129.000000 
	C86.333336,129.000000 43.666668,129.000000 1.000000,129.000000 
	C1.000000,104.500000 1.000000,80.000000 1.000000,55.000000 
M107.806030,77.175095 
	C107.997337,76.540665 108.124474,75.878006 108.389320,75.275917 
	C115.608307,58.864532 115.571671,42.607498 105.958450,27.275719 
	C96.349243,11.950326 82.220482,4.587438 63.823864,4.887116 
	C47.409344,5.154507 34.709175,11.954424 25.470074,25.060310 
	C13.192873,42.475811 14.340734,61.016682 23.257160,79.191452 
	C31.945538,96.901382 45.800579,110.578545 60.740456,123.146523 
	C63.539791,125.501434 66.496506,125.531067 69.296547,123.152336 
	C84.553772,110.190826 98.348724,95.987587 107.806030,77.175095 
z"/>
<path fill="#6E4E1C" opacity="1.000000" stroke="none" 
	d="
M107.648224,77.519951 
	C98.348724,95.987587 84.553772,110.190826 69.296547,123.152336 
	C66.496506,125.531067 63.539791,125.501434 60.740456,123.146523 
	C45.800579,110.578545 31.945538,96.901382 23.257160,79.191452 
	C14.340734,61.016682 13.192873,42.475811 25.470074,25.060310 
	C34.709175,11.954424 47.409344,5.154507 63.823864,4.887116 
	C82.220482,4.587438 96.349243,11.950326 105.958450,27.275719 
	C115.571671,42.607498 115.608307,58.864532 108.389320,75.275917 
	C108.124474,75.878006 107.997337,76.540665 107.648224,77.519951 
M93.018028,74.437897 
	C93.661644,73.476357 94.311264,72.518776 94.947990,71.552696 
	C105.945557,54.866344 99.240479,30.809072 81.382324,21.660780 
	C68.279266,14.948405 50.302391,17.097994 38.846741,29.314869 
	C24.883011,44.206478 27.000530,72.253273 47.224476,83.599747 
	C61.336246,91.517036 80.484024,89.860283 93.018028,74.437897 
z"/>
<path fill="#000000" opacity="1.000000" stroke="none" 
	d="
M92.773476,74.700348 
	C80.484024,89.860283 61.336246,91.517036 47.224476,83.599747 
	C27.000530,72.253273 24.883011,44.206478 38.846741,29.314869 
	C50.302391,17.097994 68.279266,14.948405 81.382324,21.660780 
	C99.240479,30.809072 105.945557,54.866344 94.947990,71.552696 
	C94.311264,72.518776 93.661644,73.476357 92.773476,74.700348 
M73.022636,71.059387 
	C72.849915,74.606026 75.199982,75.654427 77.823601,74.742599 
	C79.226974,74.254845 80.674866,71.904137 80.848671,70.261490 
	C81.283524,66.151566 80.853661,61.957397 81.090599,57.815323 
	C81.172531,56.383080 81.869110,54.695339 82.848343,53.654232 
	C87.684158,48.512852 88.649727,41.622944 85.139618,35.450409 
	C81.749466,29.488821 72.003143,29.335390 68.493202,35.188351 
	C66.047035,39.267441 65.986229,48.511074 69.550034,51.521378 
	C73.295792,54.685364 73.014656,58.251945 73.001945,62.159306 
	C72.993294,64.818642 73.005142,67.478050 73.022636,71.059387 
M62.997894,48.187366 
	C62.989201,43.533398 63.083607,38.875168 62.891483,34.228786 
	C62.849167,33.205357 61.790314,32.223965 61.199558,31.223211 
	C60.474663,32.256664 59.353176,33.207508 59.116711,34.342705 
	C58.750996,36.098385 59.195316,38.014637 58.895214,39.795219 
	C58.716240,40.857128 57.771317,41.789940 57.170719,42.780785 
	C56.454933,41.737556 55.376095,40.778065 55.111469,39.630775 
	C54.746811,38.049801 55.225105,36.282154 54.910004,34.679470 
	C54.669811,33.457787 53.757523,32.368240 53.144234,31.219913 
	C52.433346,32.438286 51.466137,33.582539 51.086155,34.896599 
	C50.730804,36.125481 51.238205,37.593979 50.927052,38.848145 
	C50.585720,40.223969 49.742355,41.475243 49.117748,42.780785 
	C48.415344,41.553734 47.424938,40.399960 47.089031,39.079666 
	C46.731030,37.672489 47.232399,36.053280 46.909096,34.628647 
	C46.634293,33.417747 45.720165,32.351936 45.088905,31.221930 
	C44.400295,32.293148 43.182476,33.333286 43.117405,34.441128 
	C42.874153,38.582619 43.199608,42.757816 42.949760,46.898533 
	C42.673538,51.476368 43.366680,55.187149 49.015438,55.795452 
	C49.015438,60.958206 49.069286,65.770340 48.994667,70.580482 
	C48.951878,73.338776 49.753067,74.994423 52.913589,75.003471 
	C55.949677,75.012177 57.067921,73.648178 57.005768,70.752815 
	C56.920177,66.765739 56.831268,62.763020 57.110703,58.792820 
	C57.201843,57.497841 58.193356,55.492756 59.199921,55.178158 
	C62.447632,54.163124 63.180855,52.027325 62.997894,48.187366 
z"/>
<path fill="#6E4E1C" opacity="1.000000" stroke="none" 
	d="
M73.015228,70.598404 
	C73.005142,67.478050 72.993294,64.818642 73.001945,62.159306 
	C73.014656,58.251945 73.295792,54.685364 69.550034,51.521378 
	C65.986229,48.511074 66.047035,39.267441 68.493202,35.188351 
	C72.003143,29.335390 81.749466,29.488821 85.139618,35.450409 
	C88.649727,41.622944 87.684158,48.512852 82.848343,53.654232 
	C81.869110,54.695339 81.172531,56.383080 81.090599,57.815323 
	C80.853661,61.957397 81.283524,66.151566 80.848671,70.261490 
	C80.674866,71.904137 79.226974,74.254845 77.823601,74.742599 
	C75.199982,75.654427 72.849915,74.606026 73.015228,70.598404 
z"/>
<path fill="#6E4E1C" opacity="1.000000" stroke="none" 
	d="
M62.996361,48.644104 
	C63.180855,52.027325 62.447632,54.163124 59.199921,55.178158 
	C58.193356,55.492756 57.201843,57.497841 57.110703,58.792820 
	C56.831268,62.763020 56.920177,66.765739 57.005768,70.752815 
	C57.067921,73.648178 55.949677,75.012177 52.913589,75.003471 
	C49.753067,74.994423 48.951878,73.338776 48.994667,70.580482 
	C49.069286,65.770340 49.015438,60.958206 49.015438,55.795452 
	C43.366680,55.187149 42.673538,51.476368 42.949760,46.898533 
	C43.199608,42.757816 42.874153,38.582619 43.117405,34.441128 
	C43.182476,33.333286 44.400295,32.293148 45.088905,31.221930 
	C45.720165,32.351936 46.634293,33.417747 46.909096,34.628647 
	C47.232399,36.053280 46.731030,37.672489 47.089031,39.079666 
	C47.424938,40.399960 48.415344,41.553734 49.117752,42.780785 
	C49.742355,41.475243 50.585720,40.223969 50.927052,38.848145 
	C51.238205,37.593979 50.730804,36.125481 51.086155,34.896599 
	C51.466137,33.582539 52.433346,32.438286 53.144234,31.219913 
	C53.757523,32.368240 54.669811,33.457787 54.910004,34.679470 
	C55.225105,36.282154 54.746811,38.049801 55.111469,39.630775 
	C55.376095,40.778065 56.454933,41.737556 57.170719,42.780785 
	C57.771317,41.789940 58.716240,40.857128 58.895214,39.795219 
	C59.195316,38.014637 58.750996,36.098385 59.116711,34.342705 
	C59.353176,33.207508 60.474663,32.256664 61.199562,31.223213 
	C61.790314,32.223965 62.849167,33.205357 62.891483,34.228786 
	C63.083607,38.875168 62.989201,43.533398 62.996361,48.644104 
z"/>
</svg>